<svg xmlns="http://www.w3.org/2000/svg" xmlns:xlink="http://www.w3.org/1999/xlink" width="400" height="443" viewBox="0 0 400 443">
  <defs>
    <path id="webpack-mpa-b" d="M157.253906,278 L138.65625,188.140625 L138.375,188.140625 L100.511719,281.585938 L62.7890625,188.140625 L62.5078125,188.140625 L43.9101562,278 L37.3007812,278 L60.609375,165.816406 L100.511719,264.605469 L140.554688,165.816406 L163.863281,278 L157.253906,278 Z M203.726562,226.460938 L203.726562,278 L196.835938,278 L196.835938,169.4375 L215.996094,169.4375 C221.15237,169.4375 225.587872,169.841793 229.302734,170.650391 C233.017597,171.458988 236.398422,173.164049 239.445312,175.765625 C245.984408,181.296903 249.253906,188.738234 249.253906,198.089844 C249.253906,202.191427 248.474617,206.175762 246.916016,210.042969 C245.357414,213.910176 243.113296,217.074206 240.183594,219.535156 C234.863255,224.152367 226.800835,226.460938 215.996094,226.460938 L203.726562,226.460938 Z M203.726562,219.957031 L216.277344,219.957031 C220.308614,219.957031 223.841782,219.558598 226.876953,218.761719 C229.912125,217.96484 232.707018,216.394543 235.261719,214.050781 C239.97268,209.785135 242.328125,204.371127 242.328125,197.808594 C242.328125,194.269514 241.625007,190.941422 240.21875,187.824219 C238.812493,184.707016 236.785169,182.175791 234.136719,180.230469 C231.722644,178.378897 229.027359,177.195315 226.050781,176.679688 C223.074204,176.16406 219.429709,175.90625 215.117188,175.90625 L203.726562,175.90625 L203.726562,219.957031 Z M343.117188,242.28125 L295.445312,242.28125 L280.890625,278 L273.824219,278 L319.351562,165.816406 L364.703125,278 L357.636719,278 L343.117188,242.28125 Z M340.515625,235.8125 L319.351562,183.394531 L298.046875,235.8125 L340.515625,235.8125 Z"/>
    <filter id="webpack-mpa-a" width="127.8%" height="178.6%" x="-13.9%" y="-39.3%" filterUnits="objectBoundingBox">
      <feMorphology in="SourceAlpha" operator="dilate" radius=".5" result="shadowSpreadOuter1"/>
      <feOffset in="shadowSpreadOuter1" result="shadowOffsetOuter1"/>
      <feGaussianBlur in="shadowOffsetOuter1" result="shadowBlurOuter1" stdDeviation="15"/>
      <feComposite in="shadowBlurOuter1" in2="SourceAlpha" operator="out" result="shadowBlurOuter1"/>
      <feColorMatrix in="shadowBlurOuter1" values="0 0 0 0 1   0 0 0 0 1   0 0 0 0 1  0 0 0 1 0"/>
    </filter>
  </defs>
  <g fill="none" fill-rule="evenodd">
    <g fill-rule="nonzero">
      <path fill="#8ED6FB" d="M386.982456,340.701754 L207.859649,442.105263 L207.859649,363.122807 L319.298246,301.754386 L386.982456,340.701754 Z M399.263158,329.614035 L399.263158,117.719298 L333.719298,155.614035 L333.719298,291.789474 L399.22807,329.578947 L399.263158,329.614035 Z M13.0175439,340.701754 L191.964912,442.035088 L191.964912,363.122807 L80.4912281,301.754386 L13.0175439,340.701754 Z M0.736842105,329.614035 L0.736842105,117.719298 L66.2807018,155.614035 L66.2807018,291.789474 L0.736842105,329.614035 Z M8.42105263,104 L192.140351,0 L192.140351,76.3508772 L74.4210526,141.087719 L73.4736842,141.614035 L8.42105263,104 Z M391.508772,104 L207.859649,0 L207.859649,76.3508772 L325.578947,141.052632 L326.526316,141.578947 L391.578947,104 L391.508772,104 Z"/>
      <path fill="#1C78C0" d="M192.140351,345.157895 L82,284.561404 L82,164.631579 L192.140351,228.070175 L192.140351,345.157895 Z M207.859649,345.157895 L318,284.631579 L318,164.631579 L207.859649,228.070175 L207.859649,345.157895 Z M89.4736842,150.877193 L200,90.0350877 L310.526316,150.877193 L200,214.596491 L89.4736842,150.877193 Z"/>
    </g>
    <use fill="#000" filter="url(#webpack-mpa-a)" xlink:href="#webpack-mpa-b"/>
    <use fill="#141E28" xlink:href="#webpack-mpa-b"/>
  </g>
</svg>
